<?xml version="1.0" encoding="utf-8"?>
<!-- Generator: Adobe Illustrator 19.2.1, SVG Export Plug-In . SVG Version: 6.00 Build 0)  -->
<svg version="1.1" id="Layer_1" xmlns="http://www.w3.org/2000/svg" xmlns:xlink="http://www.w3.org/1999/xlink" x="0px" y="0px"
	 viewBox="0 0 513.2 512.2" style="enable-background:new 0 0 513.2 512.2;" xml:space="preserve">
<style type="text/css">
	.st0{fill:#FEFEFE;}
	.st1{fill:#C2C2C2;}
	.st2{fill:#4F8DF4;}
	.st3{fill:#C4C4C4;}
	.st4{fill:#3764CD;}
	.st5{fill:#548FF4;}
	.st6{fill:#3864CC;}
	.st7{fill:#4C8AF3;}
	.st8{fill:#4D8BF4;}
	.st9{fill:#4A87EE;}
	.st10{fill:#B4B4B4;}
	.st11{fill:#648BDF;}
	.st12{fill:#CFCFCF;}
	.st13{fill:#7DAAF6;}
	.st14{fill:#3657B9;}
	.st15{fill:#315AC2;}
	.st16{fill:#457AE0;}
	.st17{fill:#B7B7B8;}
	.st18{fill:#3358BD;}
	.st19{fill:#385BBD;}
	.st20{fill:#4B7FE0;}
	.st21{fill:#5084E4;}
	.st22{fill:#B9B9BA;}
	.st23{fill:#4A7EE0;}
	.st24{fill:#3D62C1;}
	.st25{fill:#5384E1;}
	.st26{fill:#518EF4;}
	.st27{fill:#3E5CB7;}
	.st28{fill:#4C81E3;}
	.st29{fill:#385EC0;}
	.st30{fill:#3666CF;}
	.st31{fill:#3765CE;}
	.st32{fill:#3A64CA;}
	.st33{fill:#3D6FD7;}
	.st34{fill:#3B6DD7;}
	.st35{fill:#376AD6;}
	.st36{fill:#396CD6;}
	.st37{fill:#3F70D7;}
	.st38{fill:#3F6DD3;}
	.st39{fill:#3B62C7;}
	.st40{fill:#3961C3;}
	.st41{fill:#3566D3;}
</style>
<title>dVHQiE0t</title>
<g>
	<path class="st0" d="M256.6,0.1c84.2,0,168.3,0,252.5-0.1c3.4,0,4.1,0.7,4.1,4.1c-0.1,168-0.1,336,0,504c0,3.4-0.7,4.1-4.1,4.1
		c-168.3-0.1-336.7-0.1-505,0c-3.4,0-4.1-0.7-4.1-4.1c0.1-168,0.1-336,0-504C0,0.7,0.7,0,4.1,0C88.3,0.1,172.4,0.2,256.6,0.1z"/>
	<path class="st1" d="M422.2,421.1c0.7,0.3,0.8,0.7,0.1,1.1c-4.9,2.4-8,7-12,10.4c-26.3,22.5-56,38.9-89.2,47.9
		c-58.8,15.9-115.7,10.9-170.4-16.8c-13.2-6.7-25.7-14.6-37.5-23.6c-5.7-4.9-11.7-9.5-17-14.9c-1-1-3.3-1.6-1.6-3.8
		c1.7-1,3.7-1.6,5.7-1.6c45.4-2.7,90-13.2,131.9-31c14-5.9,27.5-12.6,40.6-20.2c2.7-1.7,5.2-3.6,7.5-5.8c6.2-3.2,13.2-4.3,19.6-7.3
		c10.6-4.7,20.4-11.2,29-19.1c3.8-3.6,4.2-3.7,8,0.1c26.6,26.6,53.2,53.1,79.7,79.7C418.1,418.2,419.8,420.1,422.2,421.1z"/>
	<path class="st2" d="M169.1,195l-6.5,11.1c-1.9,0.9-1.9,2.7-2.4,4.3l-4,9.8c-2.2,1.8-4.6,3.1-7.3,4c-20.3,7.7-41.5,10.1-63,10.3
		c-17.8,0.2-35.5-0.1-53.2-2.1c-2.9-0.3-6-0.3-8.5-2.4c1.4-16.4,5-32.5,10.7-48c2.1-3.6,2.5-7.9,4.7-11.4c2.5-6.8,4.9-13.7,9.6-19.5
		c1.8-0.6,3.6-0.2,5.4,0.1c28.5,4.1,55.9,0.6,81.5-12.9c39.1-20.6,62.3-53.2,70.2-96.6c0.8-4.4,1.2-8.9,1.4-13.4
		c0.1-2-0.1-4.1,2.1-5.2c4.6-1.2,9.2-0.6,13.8-0.6c10.7,0.1,21.4-0.6,32.1,0.4c0.6,0.2,1.2,0.5,1.6,1c0.6,0.8,0.9,1.8,0.9,2.8
		c0.4,34,0.1,67.9,0.1,101.9c0,0.8-0.1,1.7-0.2,2.5c-9.4,12.1-17.9,24.8-28.4,36c-0.8,1-2.1,1.7-3.5,1.7c-3.9-0.9-5.6-4.5-8.3-6.8
		c-1.5-1.3-2.7-3-4.4-4c-5.5,0-9.4,3.7-13.6,6.3c-9,5.6-17,12.6-23.7,20.7C173.5,188.1,171,191.4,169.1,195z"/>
	<path class="st3" d="M422.2,421.1c-2.8,0.5-4.2-1.6-5.8-3.2c-26.7-26.7-53.4-53.3-80-80.1c-3.1-3.2-4.6-2.9-7.7,0
		c-13.4,13-29.5,21.1-47.6,25.3c-2.4,1.9-5.3,3-8.3,3.1c-2.3,0.1-4.6,0.8-6.6,1.9c-0.8,0.7-1.8,0.9-2.8,0.8c-3.6-1.3-7.6-1-11,0.8
		c-1.2,0.6-2.7,0.1-3.8-0.8c-3.5-3-7.5-3.2-11.8-2.1c-1.5,0.5-3.1,0.2-4.3-0.8c-4-3.4-9-4.6-13.9-5.1c-6.8-0.7-13.3-3.4-18.6-7.6
		c-4.8-3.7-11.3-5.3-14.1-11.4c-0.5-1.1-1.9-1.2-3-1.6c-3.3-0.9-5.9-3.4-6.9-6.6c-2-5.3-5.3-7-10.9-5.4c-14.9,4.4-30.1,7.6-45.4,9.6
		c-30.4,4-61.2,3.8-91.6-0.5c-2.3-0.3-4.8-0.4-5.4-3.4c0-23.5,0-46.9,0-70.4c0-5.3,0.5-5.9,5.5-5.9c55.3,0,110.5,0,165.8,0
		c0.3,0,0.7,0.1,1,0.1c4.7,1.5,1.8,3.6,0.2,5.3c-7.3,7.5-14.9,14.8-22.2,22.3c-4.4,4.5-9.6,8.3-12.8,13.9c1.7,7.7,6.3,14,10.8,20
		c18.1,23.8,41.9,38.8,71.7,42.7c32.9,4.2,62.1-4.8,86.7-27.5c2.1-2,3.6-3,6.1-0.4c28.7,28.8,57.4,57.6,86.1,86.3
		C421.9,420.5,422,420.8,422.2,421.1z"/>
	<path class="st4" d="M312,255.1c13.1-13.2,26.1-26.4,39.3-39.5c2.4-2.3,3.1-4.4,1.6-7.2c2.4-5.3,4.7-10.7,10.6-13.2
		c1.9,1.9,1.6,4.2,1.3,6.5c-0.9,6.8-0.5,13.6,1.1,20.2c2.1-2.3,4.5-4.4,7.1-6.2c4.1-2.6,6.1-1.6,6.4,3.3c0.2,4.6,0,9.3,0.1,14
		c0,1.5-0.8,3.8,1.3,4.3c1.8,0.4,2.8-1.4,3.9-2.7c2.9-3.6,4.8-8,8.6-10.9c2.2-1.4,4.4-0.9,4.6,1.5c0.8,9.4,2.2,19-0.8,28.3
		c-1.9,1.3-4.1,1-6.3,1c-24.5,0.1-49-0.3-73.5,0.2C315.5,254.8,313.9,256.1,312,255.1z"/>
	<path class="st5" d="M49.1,152.1c-3.9,5.9-6.9,12.3-9,19c-0.2,0.3-0.7,0.4-1,0.1c-0.1-0.1-0.1-0.1-0.2-0.2
		c5.8-16.6,14.3-31.8,24-46.3C77.5,103,95.7,84,116.7,68.3c1.2-0.9,2.2-2,3.3-3c-0.8-2.3-2.5-3.9-4.2-5.5
		c-10.5-10.5-21-20.9-31.4-31.5c-1.4-1.4-5.1-3.2-0.5-5.4c20.9-0.5,41.7-0.6,62.5,0c2.4,0.6,2.4,2.4,2.1,4.4
		c-3.2,24.6-14.6,44-36.4,56.5c-4.3,2.5-8.7,5-13.7,5.8c-2.3,0.3-3.7,2.1-5.2,3.6c-16.2,16.1-30,34.4-41,54.4
		C51.5,149.2,50.4,150.8,49.1,152.1z"/>
	<path class="st6" d="M363.1,195.1l-10.2,13.3l-5.8-10.5c-2.3-4.9-5.8-9-9.4-12.9c-1.2-2-3.3-3.2-4.1-5.5c-2.9-5-3.1-10.1-0.2-15.2
		c5.1-8.8,6.8-18.1,6.4-28.2c-0.4-9.6-0.8-19.3,0.4-28.9c1.9-3.1,3.4-0.6,4.7,0.5c3.5,3.1,6.6,6.5,10,9.8c2.7,2.9,5.7,5.6,8.3,8.5
		c1.3,1.3,2.1,3,2.3,4.9c1.1,11.5-0.6,22.9-0.7,34.3c-0.1,7.8,0,15.6,0,23.4C364.6,190.8,364.9,193.2,363.1,195.1z"/>
	<path class="st7" d="M24.2,230.1c21.9,2.8,44,3.4,66,3c22.6-0.4,44.7-4.1,65.6-13.1c0.1,0.1,0.2,0.2,0.3,0.3
		c-3.2,9.1-4.3,18.6-6,28.1c-2.4-1.3-5.1-1.7-7.7-1.2c-3,0.4-6,0.5-9,0.4c-26.4,0-52.9,0-79.3,0c-9.1,0-18.3-1.3-26.9,3.2
		c-1.2,0.6-2.7,0.5-3.9-0.1c-1.3-0.9-0.9-2.2-0.7-3.4C22.8,241.5,23.3,235.8,24.2,230.1z"/>
	<path class="st8" d="M226.1,168.1c4.8-1.7,7-6.4,10-9.8c6.2-7.2,12.3-14.6,16.9-23c0.7-1.5,2.3-2.4,4-2.2
		c2.5,5.4,2.3,10.8,0.2,16.3l-0.3,49.8c-1.8,0.5-2.7-0.9-3.7-2c-8.5-8.4-16.9-16.8-25.3-25.3C226.9,170.8,225.4,170,226.1,168.1z"/>
	<path class="st9" d="M23.2,250.1c1.3-0.2,2.8-0.1,3.9-0.6c6.4-3.1,12.9-3.8,20.1-3.6c30.7,0.5,61.3,0.2,92,0.2
		c2.5-0.2,4.9-0.5,7.4-1c2.5-0.3,3.8,0.7,3.7,3.3c-0.1,1.6-0.1,3.1-0.2,4.7c-2.2,2-5,1.5-7.6,1.5c-35.4,0-70.8,0.1-106.2-0.1
		c-4.3,0-8.5,2.2-12.8,0.1C22.2,253.2,22.3,251.7,23.2,250.1z"/>
	<path class="st10" d="M113.1,439.1c17.2,12.9,35.9,23.6,55.7,31.8c16.7,6.9,34.2,11.7,52.1,14.3c14.1,2.3,28.3,3.2,42.6,2.8
		c17.4-0.6,34.6-3.1,51.5-7.2c18.7-4.7,36.7-11.8,53.6-21c17.3-9.3,33.5-20.3,47.5-34.2c1.7-1.7,3.1-4,6.2-3.5
		c-12.8,14-27.9,25.1-44,34.9c-26.1,15.9-54.4,26.5-84.6,30.8c-66.5,9.5-126.9-5.8-180.6-46.5c-0.4-0.4-0.7-0.8-0.9-1.2
		C111.8,439.2,112.2,438.9,113.1,439.1z"/>
	<path class="st11" d="M265.2,22c51.4,1.5,97.1,18.8,137.5,50.3c16.2,12.6,30.5,27.4,42.6,44c2.1,2.9,3.1,2.1,5.1,0.1
		c12.2-12.3,24.5-24.5,36.7-36.8c1.2-1.2,2.4-2.3,3.5-3.4c1.9,1.2,1.2,2.8,1.2,4.2c0,57.5,0,114.9,0,172.4c0,1.1,0.5,2.4-0.8,3.1
		c-0.8-0.9-1.3-2.1-1.3-3.3c-0.3-16.1-0.1-32.3-0.2-48.4c0-38.6,0-77.2,0-115.8c0-1.8,0.4-3.7-0.7-6.2c-7,6.4-13.2,13.2-19.9,19.5
		c-6,5.3-11.4,11.2-17.1,16.8c-4,3.8-5,3.9-8.3-0.4c-9.5-12.4-20.4-23.8-32.4-33.8c-1.1-1-2.1-2.1-3.1-3.3
		c-9.5-9.2-20.8-15.8-32-22.6c-2-1.2-4-2.3-5.9-3.7c-18.3-10.5-38.1-18.2-58.7-22.9c-12.3-2.9-24.8-4.7-37.4-5.6
		c-4.5-1.1-9.1-0.5-13.7-0.8c-1.2,0-2.4-0.5-3.3-1.3l-0.1-0.2c-0.5-1.4,0-2.3,1.5-2.3C260.7,21.7,263,21.3,265.2,22z"/>
	<path class="st12" d="M197.1,259.1c-56.2,0-112.5,0-168.7-0.1c-4,0-5.4,1-5.4,5.2c0.2,23.6,0.1,47.3,0.1,70.9
		c1.1,1.5,1.7,3.3,1.5,5.1c-0.1,30.7,0.4,61.4-0.2,92.1c-0.1,1.3-0.6,2.6-1.3,3.7c-1.6,0.3-0.9-1-0.9-1.5c0-59.5,0-119,0.1-178.5
		c0.5-0.4,1.1-0.7,1.8-0.8c40.3-1.4,80.6-0.3,120.9-0.6c1.9,0,3.7,0.1,5.2,1.5c16.4,0,32.7,0,49.1,0.1c0.4,0,4.7-2.2,2,1.9
		C199.9,258.7,198.7,259.9,197.1,259.1z"/>
	<path class="st13" d="M265.2,22c-2.6,1.1-6.3-1.8-8.3,2l-47.9,0.1c-1.9,1.7-4.3,1.6-6.6,1.6c-15.9,0-31.9,0-47.8,0
		c-2.3,0-4.7,0.1-6.6-1.6h-66c-1.7,1.3-2.6-0.5-3.9-1c0.3-0.6-2.2-1.2-0.1-1.8c1-0.1,2-0.1,3,0c59.1,0,118.2,0,177.3,0
		C260.6,21.2,263.1,20.8,265.2,22z"/>
	<path class="st14" d="M257.1,149.4c0-5.4-0.1-10.8-0.2-16.3c0.1-35.7,0.1-71.3,0.2-107c2.8-0.1,3.1,2.2,3.7,4c1,3,0.8,6.2,0.8,9.4
		c0,32.9,0,65.8,0,98.7c0,6.6,0.1,6.6,6.3,7.7c2.8,0.7,5.7,0.9,8.4,1.7c3.8,0.8,7.7,1,11,3.4c0.4,0.8,0.3,1.7-0.3,2.3l-18-3.3
		c-1.7-0.8-3.6,0.1-5.4-0.7L257.1,149.4z"/>
	<path class="st15" d="M490.8,253.2l0.2,2.7c-19.5,0.1-39,0.2-58.5,0.2c-13.8,0-27.6-0.1-41.5-0.1c-2-1.3-4.2-0.8-6.3-0.8
		c-20.8,0-41.6,0-62.4,0c-2.1,0-4.4,0.6-6.2-1c1.6-1.7,3.8-1,5.7-1c25.1-0.1,50.2-0.1,75.3,0c1.6-1.5,3.6-1.6,5.6-1.6
		c13.4,0,26.8-0.2,40.2,0.1c14.5-0.1,29-0.3,43.4,0.1C488,251.8,489.6,251.8,490.8,253.2z"/>
	<path class="st16" d="M150.1,256.1h-127c-0.5-0.4-0.6-1.1-0.3-1.6c0.1-0.1,0.2-0.2,0.3-0.3c42.3-2.3,84.6-0.4,126.9-1L150.1,256.1z
		"/>
	<path class="st17" d="M23.1,436l0.1-2.9c0.8-1.6,1.8-3.1,3.1-4.5c11.9-11.8,23.7-23.7,35.6-35.5c3.7-3.7,5.4-3.7,8.5,0.4
		c6.9,9.1,14.6,17.6,22.3,26c0.8,0.7,1.3,1.6,1.4,2.6l19,17l-1,1c-17.6-13.1-32.1-29.3-45.6-47C55.6,404,45,414.7,34.3,425.4
		C30.6,429,27.3,433,23.1,436z"/>
	<path class="st18" d="M316.1,254.1c23.3,0,46.7,0,70,0.1c1.8,0,4.2-1.2,5,1.8c-26,0.1-52,0.1-78,0.1c-0.5-0.1-0.9-0.2-1.4-0.3
		l0.3-0.7L316.1,254.1z"/>
	<path class="st19" d="M287.1,153.3v-2.2c0.5-0.5,1.3-0.8,2.1-0.6c15.6,4.5,29,12.8,40.9,23.5c2,1.8,3.3,4.1,5,6.1
		c0.7,1.8,3.1,2.7,3,5c-0.2,0.3-0.5,0.4-0.8,0.2c-0.1,0-0.1-0.1-0.2-0.2C323.5,170.3,306.2,159.4,287.1,153.3z"/>
	<path class="st20" d="M226.1,168.1c9.9,10.8,20.3,20.9,30.9,31c0,0.8,0.2,2.1-0.2,2.3c-1.1,0.5-1.6-0.7-2.2-1.3
		c-7.5-7.5-15.1-15-22.6-22.5c-5.3-5.3-10.6-10.6-15.9-15.8c-1.1-1.1-2-2.7-4-2.7c-0.4-1.7,0.9-1.7,2-1.9L226.1,168.1z"/>
	<path class="st21" d="M78.2,23.1l3.9,1L117,59.4c1.6,1.6,3.6,3.1,3,5.8C105.9,51.4,91.6,37.8,78.2,23.1z"/>
	<path class="st22" d="M197.1,259.1c1.2-0.8,2.7-1.1,4.1-1c-13.4,14-27.1,27.7-41.1,41.1c-0.5-2.5,1.3-3.9,2.8-5.5
		c10.2-10.2,20.4-20.4,30.6-30.6C194.8,261.9,195.9,260.5,197.1,259.1z"/>
	<path class="st23" d="M214.1,157.1l-2,1.9c-13.1,6.6-25,15.4-35,26.1c-0.2,0.3-0.5,0.4-0.8,0.2c-0.1-0.1-0.2-0.1-0.2-0.2
		c1.8-4.9,6.1-7.7,9.7-11c7.4-6.9,15.8-12.5,24.9-16.8C211.7,156.9,212.8,155.5,214.1,157.1z"/>
	<path class="st24" d="M337.1,185.1h1c4.4,3.1,7.6,7.7,9,12.9L337.1,185.1z"/>
	<path class="st25" d="M176.1,185.1h1.1l-8,9.9C169.6,190.5,172.7,187.7,176.1,185.1z"/>
	<path class="st26" d="M38.9,171l1.2,0.1c-2.4,3.3-2,8-5.2,11C35.7,178.2,37,174.5,38.9,171z"/>
	<path class="st3" d="M23.2,254.1c0,0.6,0,1.3,0,1.9h-0.4h-0.4c0-3-0.8-6,0.6-8.8l0.4,2.9C23.2,251.4,23.2,252.8,23.2,254.1z"/>
	<path class="st27" d="M263.7,149.2c1.8,0,3.7-0.7,5.4,0.7C267.2,150.2,265.4,150,263.7,149.2z"/>
	<path class="st28" d="M160.2,210.5c-0.2-2-0.1-3.9,2.4-4.3L160.2,210.5z"/>
	<path class="st1" d="M94.1,422.1c-9-7.9-16.3-17.2-23.7-26.5c-4.1-5.2-3.9-5.3-8.7-0.6c-12.8,12.7-25.7,25.4-38.5,38.1
		c0-32.7,0-65.3,0-98c7.5,1.5,15,2.2,22.6,3.1c10.1,1.2,20.2,0.7,30.4,1c30.8,0.7,60.7-4.1,90.2-12.6c4.9-1.4,9.6,1.7,10.9,6.7
		c0.8,3.2,2.9,5.7,6.5,5.8c2.8,0.1,4.5,0.9,4.4,4c0,1.1,0.7,1.6,1.7,2.1c6.9,3.7,13.1,8.5,19.8,12.5c3.9,2.3,7.9,0.2,11.7,2.3
		s9.2,1.1,12.2,5.5c0.6,0.9,1.9,0.8,2.8,0.3c4.9-2.2,9.2-1.9,13,2.3c1.3,1.4,3,1.2,4.4-0.3c1.1-1.1,2.5-2.2,4-1.7
		c8.3,3,15.5-2.8,23.3-3.1c-4.1,6.2-10.9,8.6-16.9,11.9c-32.2,17.3-66.7,30-102.4,37.7c-15.8,3.4-31.8,5.9-47.9,7.6
		C107.2,421.1,100.5,420.1,94.1,422.1z"/>
	<path class="st26" d="M148.1,24.1h61c-0.4,30.9-11,58-30.4,81.9c-18.6,22.9-42.6,37.3-70.9,44.6c-15.5,4-31.6,4.9-47.4,2.6
		c-3.8-0.5-7.6-0.7-11.4-1.1c4-10.9,10.9-20.1,17.4-29.5c7-10.1,14.9-19.5,23.7-28.1c3.3-3.2,6.4-5.8,11.4-7.1
		c7.3-1.9,13.9-6.2,19.9-11.1c13.7-11.4,21.6-26.2,25.2-43.4C147.2,30,147.6,27,148.1,24.1z"/>
	<path class="st29" d="M269.1,147.1c-9,0-9,0-9-9c0-34,0-68,0-101.9c0-3.6,0-7.3-2.9-10.1c0-0.7,0-1.3-0.1-2h3
		c0.4,0.5,0.8,0.9,1.2,1.4c4.4,5.6,6,12,6.4,19c1.5,21.2,0.1,42.5,1.2,63.7c0.5,10.7,2.1,21.4,1.7,32.2
		C270.5,142.8,270.9,145.2,269.1,147.1z"/>
	<path class="st30" d="M443.1,253.1h-46c0-8.7,0-17.3,0-26c0-3.6-1.3-4.1-4-2c-3-1.5-3.4-4.5-3.4-7.2c-0.1-9.8-0.6-19.5,0.5-29.2
		c0.8-7.2,0.2-14.6,0.4-21.8c0.1-2.6-0.3-5.3,0.8-7.8c2.8-3,4.5-0.2,6.1,1.4c8.7,8.5,17.2,17.1,25.8,25.7c3.2,3.2,6.3,6.4,9.6,9.5
		c3.1,3.2,6.2,6.2,9.3,9.4c1.6,1.6,3.1,3.4,3.3,5.9c-0.6,12.7-0.9,25.5-0.9,38.2C444.6,250.5,444.1,252,443.1,253.1z"/>
	<path class="st31" d="M393.1,158.1c-0.8,0.7-1.2,1.7-1,2.7c0.7,18.9-1.6,37.8-1,56.7c0.2,2.6,0.9,5.2,2,7.6
		c-2.3,3.2-4.7,6.5-6.9,9.8c-1,1.7-2.4,3.2-4.1,4.2c-2.5,1.4-4.1,1.2-4-2.2c0.1-6.2,0-12.3,0-18.5c0-1.1,0.3-2.5-1.2-3
		c-1.1-0.4-1.9,0.4-2.6,1.1c-2.5,2.1-5.6,3.7-7.2,6.7c-0.4,0.8-1,1.6-1.8,1.5c-1.3-0.2-1-1.5-1.1-2.4c-0.6-7.6-2-15.1-0.2-22.8
		c0.3-1.3-0.5-2.9-0.8-4.3c-0.7-22,1.1-44,1-66c2.5-0.6,3.5,1.5,4.9,2.8c6,5.8,11.8,11.7,17.7,17.6
		C388.6,152.4,392.9,153.8,393.1,158.1z"/>
	<path class="st32" d="M335.1,180.1c-10-9.1-20.3-17.9-32.9-23.4c-4.4-1.9-8.8-3.7-13.1-5.6c-1.7-1.9-1.5-4.3-1.5-6.6
		c-0.1-26.6-1.7-53.2-0.9-79.9c0.1-4.5-2-8.4-2.5-12.6c1.2-4.1,3.2-1.5,4.6-0.3c3.9,3.5,7.5,7.4,11.3,11.1l4.6,4.5
		c11,11.3,22.3,22.3,33.4,33.5c1.4,1.4,3.7,2.5,3.1,5.2c0,11.5-0.4,23,0.1,34.5c0.4,7.7-1.4,15.3-5.4,21.8
		C332.3,168.4,331.7,174.1,335.1,180.1z"/>
	<path class="st33" d="M341.1,106.1c-10.8-11-21.6-21.9-32.4-32.9c-1.6-1.6-3.1-3.4-4.6-5.1c2.8-9.1,3.8-18.6,4.7-28
		c0.3-3.2-0.8-7.1,3.3-9c11.1,1.5,21.5,5.5,31.8,9.6c9.4,3.7,18.7,7.6,27.2,13.4c1,1.6,1.3,3.5,0.9,5.3c-2.4,18-6.4,35.8-12.1,53
		c-0.9,2.7-1.1,6.7-5.8,5.7L341.1,106.1z"/>
	<path class="st34" d="M354.1,118.1c2.6-0.1,3.3-2.1,3.9-4c5.4-17.2,10.1-34.7,12.2-52.7c0.3-2.5,1.3-4.8,1-7.4
		c8.9,5.7,18.4,10.4,26.8,17c3.8,2.9,7.4,6.1,11.1,9.1c-2.3,13.9-6,27.5-10.1,41c-2.2,7.8-4.9,15.5-8.1,23c-1,2.4-1.8,5.1-4.8,6
		c-6-5.8-11.9-11.6-17.9-17.4c-1.3-1.3-2.7-2.4-4.1-3.6L354.1,118.1z"/>
	<path class="st35" d="M444.1,209.1l-12-13c4.5-1.9,6.4-5.8,8.3-10c10.6-23.6,18.9-48.1,24.7-73.3c0.8-3.6,0.5-7.3,2-10.7l24.2-22.8
		c-0.2,0.6-0.3,1.1-0.3,1.7c0,56.5,0,113.1,0,169.6c0,0.8-0.1,1.7-0.2,2.5l-3.7-0.1c-12.9-13.6-26.8-26.1-39.8-39.6
		C446.1,212.1,445,210.7,444.1,209.1z"/>
	<path class="st36" d="M467.1,102.1c0.9,3.6,0.1,7-0.7,10.6c-5.9,26.5-15,51.8-26,76.5c-1.6,3.7-3.1,7.6-8.4,6.8
		c-10.9-10.8-21.9-21.5-32.8-32.3c-2-2-4.1-3.8-6.2-5.7l-7-8c6.6-10.4,9.3-22.3,12.9-33.8c3.2-10.6,5.5-21.5,8.1-32.2
		c0.2-1.5,0.9-2.9,2-3.9c4.9,4.7,9.6,9.6,14.8,14c8.1,7,14.6,15.3,21,23.7c2.5,3.3,3.6,2.6,5.9,0.2
		C456.1,112.7,461.6,107.5,467.1,102.1z"/>
	<path class="st37" d="M312.1,31.1c-3.2,6.1-1.5,13-2.9,19.3c-1.1,4.8-1.4,9.8-2.3,14.6c-0.2,1.4-0.9,2.9-2.8,3l-19-18
		c-4.5-2.6-8.1-5.9-10.1-10.8c-0.3-3.1-0.4-6.2-1.4-9.1c-0.6-1.7-0.9-3.5,0.5-5.1C287,25.6,299.7,27.2,312.1,31.1z"/>
	<path class="st38" d="M274.1,25.1c0.2,5.1,3,9.8,2,15c-1.7,0.7-2.5-0.7-3.6-1.5c-4.3-4.3-8.7-8.6-12.4-13.5c0-0.3,0-0.7,0-1
		C264.8,24.5,269.5,23.2,274.1,25.1z"/>
	<path class="st39" d="M273.1,38.1l3,2l9,10c6.1,19.9,1.4,40.4,3.1,60.5c1.1,13.5,0.7,27,0.9,40.5h-2c-3.8-0.1-7.2-2.2-11-2
		c-2.3-2.7-3.5-6.1-3.5-9.6c-0.1-1.5-0.1-3-0.1-4.5c0.1-29-1.7-58-1-87.1C271.6,44.6,269.7,40.9,273.1,38.1z"/>
	<path class="st40" d="M273.1,38.1c-1.2,2.6,0,5.2,0,7.8c0,6-0.1,12,0,17.9c0.3,25.2,0.6,50.4,1,75.6c0,3.4,1.4,6.4,2,9.7
		c-2-1.8-5,0-7-2c-0.1-30-2.8-59.9-2.4-89.9c0.1-8.1,0.7-16.8-2.9-25c-1.1-2.5-4.2-4-3.8-7.2C264.8,29,269.2,33.4,273.1,38.1z"/>
	<path class="st41" d="M444.1,209.1c8.9,8.7,18,17.3,26.7,26.3c5,5.1,11.4,8.8,15.2,15c0.6,0.8,1,1.7,1.1,2.7h-44
		C443.1,238.4,442.8,223.7,444.1,209.1z"/>
</g>
</svg>
